TITLE ""
FILE "P1Q_t_1010-1019.mp3" MP3
  TRACK 01 AUDIO
    TITLE "P1Q_t_1010-1019_01"
    INDEX 01 00:00:00
  TRACK 02 AUDIO
    TITLE "P1Q_t_1010-1019_02"
    INDEX 01 00:01:10
  TRACK 03 AUDIO
    TITLE "P1Q_t_1010-1019_03"
    INDEX 01 00:01:29
  TRACK 04 AUDIO
    TITLE "P1Q_t_1010-1019_04"
    INDEX 01 00:02:60
  TRACK 05 AUDIO
    TITLE "P1Q_t_1010-1019_05"
    INDEX 01 00:03:03
  TRACK 06 AUDIO
    TITLE "P1Q_t_1010-1019_06"
    INDEX 01 00:07:12
  TRACK 07 AUDIO
    TITLE "P1Q_t_1010-1019_07"
    INDEX 01 00:07:55
  TRACK 08 AUDIO
    TITLE "P1Q_t_1010-1019_08"
    INDEX 01 00:08:61
  TRACK 09 AUDIO
    TITLE "P1Q_t_1010-1019_09"
    INDEX 01 00:09:07
  TRACK 10 AUDIO
    TITLE "P1Q_t_1010-1019_10"
    INDEX 01 00:11:57
  TRACK 11 AUDIO
    TITLE "P1Q_t_1010-1019_11"
    INDEX 01 00:12:02
  TRACK 12 AUDIO
    TITLE "P1Q_t_1010-1019_12"
    INDEX 01 00:17:15
  TRACK 13 AUDIO
    TITLE "P1Q_t_1010-1019_13"
    INDEX 01 00:17:62
  TRACK 14 AUDIO
    TITLE "P1Q_t_1010-1019_14"
    INDEX 01 00:19:06
  TRACK 15 AUDIO
    TITLE "P1Q_t_1010-1019_15"
    INDEX 01 00:19:27
  TRACK 16 AUDIO
    TITLE "P1Q_t_1010-1019_16"
    INDEX 01 00:23:45
  TRACK 17 AUDIO
    TITLE "P1Q_t_1010-1019_17"
    INDEX 01 00:23:64
  TRACK 18 AUDIO
    TITLE "P1Q_t_1010-1019_18"
    INDEX 01 00:27:64
  TRACK 19 AUDIO
    TITLE "P1Q_t_1010-1019_19"
    INDEX 01 00:28:34
  TRACK 20 AUDIO
    TITLE "P1Q_t_1010-1019_20"
    INDEX 01 00:29:53
  TRACK 21 AUDIO
    TITLE "P1Q_t_1010-1019_21"
    INDEX 01 00:29:73
  TRACK 22 AUDIO
    TITLE "P1Q_t_1010-1019_22"
    INDEX 01 00:31:34
  TRACK 23 AUDIO
    TITLE "P1Q_t_1010-1019_23"
    INDEX 01 00:31:54
  TRACK 24 AUDIO
    TITLE "P1Q_t_1010-1019_24"
    INDEX 01 00:36:34
  TRACK 25 AUDIO
    TITLE "P1Q_t_1010-1019_25"
    INDEX 01 00:37:04
  TRACK 26 AUDIO
    TITLE "P1Q_t_1010-1019_26"
    INDEX 01 00:38:01
  TRACK 27 AUDIO
    TITLE "P1Q_t_1010-1019_27"
    INDEX 01 00:38:23
  TRACK 28 AUDIO
    TITLE "P1Q_t_1010-1019_28"
    INDEX 01 00:40:06
  TRACK 29 AUDIO
    TITLE "P1Q_t_1010-1019_29"
    INDEX 01 00:40:25
  TRACK 30 AUDIO
    TITLE "P1Q_t_1010-1019_30"
    INDEX 01 00:44:13
  TRACK 31 AUDIO
    TITLE "P1Q_t_1010-1019_31"
    INDEX 01 00:44:60
  TRACK 32 AUDIO
    TITLE "P1Q_t_1010-1019_32"
    INDEX 01 00:45:72
  TRACK 33 AUDIO
    TITLE "P1Q_t_1010-1019_33"
    INDEX 01 00:46:16
  TRACK 34 AUDIO
    TITLE "P1Q_t_1010-1019_34"
    INDEX 01 00:47:61
  TRACK 35 AUDIO
    TITLE "P1Q_t_1010-1019_35"
    INDEX 01 00:48:05
  TRACK 36 AUDIO
    TITLE "P1Q_t_1010-1019_36"
    INDEX 01 00:52:35
  TRACK 37 AUDIO
    TITLE "P1Q_t_1010-1019_37"
    INDEX 01 00:53:05
  TRACK 38 AUDIO
    TITLE "P1Q_t_1010-1019_38"
    INDEX 01 00:54:30
  TRACK 39 AUDIO
    TITLE "P1Q_t_1010-1019_39"
    INDEX 01 00:54:51
  TRACK 40 AUDIO
    TITLE "P1Q_t_1010-1019_40"
    INDEX 01 00:57:42
  TRACK 41 AUDIO
    TITLE "P1Q_t_1010-1019_41"
    INDEX 01 00:57:63
  TRACK 42 AUDIO
    TITLE "P1Q_t_1010-1019_42"
    INDEX 01 01:02:27
  TRACK 43 AUDIO
    TITLE "P1Q_t_1010-1019_43"
    INDEX 01 01:02:72
  TRACK 44 AUDIO
    TITLE "P1Q_t_1010-1019_44"
    INDEX 01 01:04:08
  TRACK 45 AUDIO
    TITLE "P1Q_t_1010-1019_45"
    INDEX 01 01:04:32
  TRACK 46 AUDIO
    TITLE "P1Q_t_1010-1019_46"
    INDEX 01 01:09:00
  TRACK 47 AUDIO
    TITLE "P1Q_t_1010-1019_47"
    INDEX 01 01:09:19
  TRACK 48 AUDIO
    TITLE "P1Q_t_1010-1019_48"
    INDEX 01 01:13:01
  TRACK 49 AUDIO
    TITLE "P1Q_t_1010-1019_49"
    INDEX 01 01:13:46
  TRACK 50 AUDIO
    TITLE "P1Q_t_1010-1019_50"
    INDEX 01 01:14:52
  TRACK 51 AUDIO
    TITLE "P1Q_t_1010-1019_51"
    INDEX 01 01:14:73
  TRACK 52 AUDIO
    TITLE "P1Q_t_1010-1019_52"
    INDEX 01 01:19:10
  TRACK 53 AUDIO
    TITLE "P1Q_t_1010-1019_53"
    INDEX 01 01:19:27
  TRACK 54 AUDIO
    TITLE "P1Q_t_1010-1019_54"
    INDEX 01 01:24:13
  TRACK 55 AUDIO
    TITLE "P1Q_t_1010-1019_55"
    INDEX 01 01:24:58
  TRACK 56 AUDIO
    TITLE "P1Q_t_1010-1019_56"
    INDEX 01 01:25:71
  TRACK 57 AUDIO
    TITLE "P1Q_t_1010-1019_57"
    INDEX 01 01:26:16
  TRACK 58 AUDIO
    TITLE "P1Q_t_1010-1019_58"
    INDEX 01 01:30:72
  TRACK 59 AUDIO
    TITLE "P1Q_t_1010-1019_59"
    INDEX 01 01:31:17
  TRACK 60 AUDIO
    TITLE "P1Q_t_1010-1019_60"
    INDEX 01 01:35:34
